<svg width="9" height="9" viewBox="0 0 9 9" fill="none" xmlns="http://www.w3.org/2000/svg">
  <g clip-path="url(#clip0)">
    <path
      d="M8.58452 0.0996094H5.94945C5.7198 0.0996094 5.53367 0.285737 5.53367 0.515382C5.53367 0.745027 5.7198 0.931155 5.94945 0.931155H7.58075L3.59395 4.91795C3.43157 5.08033 3.43157 5.34356 3.59395 5.50595C3.67517 5.58712 3.78156 5.62772 3.88795 5.62772C3.99434 5.62772 4.10074 5.58712 4.18195 5.50595L8.16875 1.51915V3.1505C8.16875 3.38015 8.35488 3.56628 8.58452 3.56628C8.81417 3.56628 9.00029 3.38015 9.00029 3.1505V0.515428C9.00029 0.285737 8.81417 0.0996094 8.58452 0.0996094Z"
      fill=""/>
    <path
      d="M6.88335 3.56599C6.6537 3.56599 6.46758 3.75212 6.46758 3.98176V8.06816H0.831545V2.43213H5.1638C5.39345 2.43213 5.57958 2.246 5.57958 2.01636C5.57958 1.78671 5.39345 1.60059 5.1638 1.60059H0.415773C0.186128 1.60059 0 1.78671 0 2.01636V8.48393C0 8.71358 0.186128 8.89971 0.415773 8.89971H6.88335C7.11299 8.89971 7.29912 8.71358 7.29912 8.48393V3.98176C7.29912 3.75212 7.11299 3.56599 6.88335 3.56599Z"
      fill=""/>
  </g>
  <defs>
    <clipPath id="clip0">
      <rect width="9" height="9" fill="white"/>
    </clipPath>
  </defs>
</svg>
