<svg width="4096" height="1080" xmlns="http://www.w3.org/2000/svg">
    <g>
        <path fill="#5d78ff" d="M497,536.4l-28.7-28.7c-1.8-1.8-5-1.8-6.8,0l-28.7,28.7c-1.9,1.9-1.9,4.9,0,6.8l28.7,28.7
            c0.9,0.9,2.1,1.4,3.4,1.4c1.3,0,2.5-0.5,3.4-1.4l28.7-28.7C498.9,541.3,498.9,538.2,497,536.4z M464.9,565.6l-25.8-25.8l25.8-25.8
            l25.8,25.8L464.9,565.6z" />
        <path fill="#5d78ff" d="M518.3,557.7c-1.8-1.8-5-1.8-6.8,0l-28.7,28.7c-1.9,1.9-1.9,4.9,0,6.8l28.7,28.7c0.9,0.9,2.1,1.4,3.4,1.4
            s2.5-0.5,3.4-1.4l28.7-28.7c1.9-1.9,1.9-4.9,0-6.8L518.3,557.7z M514.9,615.6l-25.8-25.8l25.8-25.8l25.8,25.8L514.9,615.6z" />
        <path fill="#5d78ff" d="M511.5,521.9c0.9,0.9,2.1,1.4,3.4,1.4c1.3,0,2.5-0.5,3.4-1.4l28.7-28.7c1.9-1.9,1.9-4.9,0-6.8l-28.7-28.7
            c-1.8-1.8-5-1.8-6.8,0l-28.7,28.7c-1.9,1.9-1.9,4.9,0,6.8L511.5,521.9z M514.9,464l25.8,25.8l-25.8,25.8l-25.8-25.8L514.9,464z" />
        <path fill="#5d78ff" d="M689.6,424.6l-161.3-93.2c-8-4.6-17.9-4.6-26,0L341,424.6c-8,4.6-13,13.2-13,22.5v186.3
            c0,9.3,4.9,17.8,13,22.5L502.3,749c8,4.6,17.9,4.6,26,0l161.3-93.2c8-4.6,13-13.2,13-22.5V447.1
            C702.6,437.8,697.6,429.3,689.6,424.6z M615.5,543.8l-47.1,47.1c-0.4,0.4-0.9,0.7-1.4,1c-0.2,0.6-0.6,1.1-1,1.5L519,640.5
            c-1.1,1.1-2.5,1.7-4.1,1.7s-3-0.6-4.1-1.7l-47.1-47.1c-0.4-0.4-0.8-1-1-1.5c-0.5-0.2-1-0.6-1.4-1l-45.7-45.7c-3-3-3-8,0-11
            l45.7-45.7c0.4-0.4,0.9-0.7,1.4-0.9c0.2-0.5,0.6-1,1-1.5l45.6-45.6c2.9-2.9,8.1-2.9,11,0l45.7,45.7c0.4,0.4,0.8,0.9,1,1.4
            c0.5,0.2,1,0.5,1.4,0.9l47.1,47.1C617.8,537.9,617.8,541.6,615.5,543.8z" />
        <path fill="#5d78ff" d="M568.2,507.7c-1.8-1.8-5-1.8-6.8,0l-28.7,28.7c-1.9,1.9-1.9,4.9,0,6.8l28.7,28.7c0.9,0.9,2.1,1.4,3.4,1.4
            c1.3,0,2.5-0.5,3.4-1.4l28.7-28.7v0c1.9-1.9,1.9-4.9,0-6.8L568.2,507.7z M564.8,565.6L539,539.8l25.8-25.8l25.8,25.8L564.8,565.6z" />
    </g>
    <g transform="translate(250.40370524214316, 37.234346733549245) scale(1)">
        <path fill="#5d78ff" d="M724.7,412.3c-7.1,0-14.9,0.3-23.4,0.9c-8.5,0.6-16.3,1.8-23.2,3.5v173.1h24.6v-65.1h19.5
            c12.4,0,23.4-1,33.2-3.1s18.1-5.3,25-9.8c6.8-4.5,12-10.3,15.7-17.5c3.6-7.1,5.4-15.8,5.4-25.9c0-18.6-6.6-32.6-19.8-42
            C768.3,417,749.4,412.3,724.7,412.3z M726.7,433.8c6.6,0,12.8,0.5,18.8,1.4c5.9,1,11.1,2.9,15.6,5.5c4.5,2.6,8,6.2,10.7,10.5
            c2.6,4.4,3.9,10,3.9,16.8c0,7.1-1.2,12.9-3.8,17.5c-2.5,4.5-6.1,8.1-10.8,10.8c-4.7,2.6-10.4,4.4-17.1,5.5
            c-6.7,1.1-14.4,1.7-22.8,1.7h-18.5v-69C708.3,434.1,716.3,433.8,726.7,433.8z M968.7,516.2c12-4.1,21-10.3,27.2-18.5
            c6.2-8.3,9.3-18.2,9.3-29.9c0-18.5-6.5-32.3-19.4-41.6c-12.9-9.3-31.7-14-56.4-14c-7.1,0-14.9,0.3-23.4,0.9
            c-8.6,0.6-16.3,1.8-23.2,3.5v173.1h24.6v-68.7h22.1h6.9c2.3,0,4.6-0.1,6.7-0.2c3.2,3.9,6.8,8.5,10.8,13.7c4,5.2,8,10.8,12,16.9
            c4.1,5.9,8.1,12.3,12,18.9c4,6.6,7.6,13.1,11,19.5h26.9c-3.1-6.7-6.7-13.8-11-21c-4.3-7.3-8.7-14.2-13.1-20.9
            c-4.3-6.7-8.7-12.8-12.8-18.3C974.8,524,971.5,519.6,968.7,516.2z M931.5,433.8c6.6,0,12.8,0.5,18.6,1.4c5.9,1,10.9,2.8,15.2,5.4
            c4.3,2.5,7.8,5.9,10.3,10.4c2.6,4.4,3.9,9.9,3.9,16.5c0,7.1-1.3,12.8-3.9,17.1c-2.5,4.3-6.1,7.7-10.8,10c-4.7,2.4-10.4,4-17.1,4.8
            c-6.7,0.9-14.4,1.3-22.8,1.3h-17.5v-66.1C913,434.1,921,433.8,931.5,433.8z M1083.1,501.8c0,15,2.2,28.3,6.7,39.7
            c4.5,11.5,10.6,21.1,18.3,28.8c7.6,7.6,16.6,13.4,26.8,17.3c10.3,3.9,21.1,5.8,32.6,5.8c11.3,0,22-1.9,32-5.8
            c10-3.9,18.9-9.7,26.5-17.3c7.6-7.7,13.6-17.3,18.1-28.8s6.7-24.7,6.7-39.7c0-15.1-2.2-28.3-6.7-39.8
            c-4.5-11.5-10.5-21.1-18.1-28.7c-7.6-7.7-16.5-13.5-26.5-17.4c-10-3.9-20.7-5.8-32-5.8c-11.5,0-22.3,1.9-32.6,5.8
            c-10.2,3.9-19.2,9.7-26.8,17.4c-7.7,7.6-13.8,17.3-18.3,28.7C1085.3,473.4,1083.1,486.7,1083.1,501.8z M1108.9,501.8
            c0-10.7,1.4-20.3,4-29.1c2.7-8.7,6.6-16.1,11.6-22.2c5-6.1,11.1-10.8,18.2-14c7.2-3.3,15.3-5,24.2-5c8.9,0,16.9,1.7,24.1,5
            c7.1,3.3,13.1,7.9,18.1,14c5,6.1,8.8,13.5,11.6,22.2c2.7,8.7,4,18.4,4,29.1c0,10.6-1.3,20.3-4,29c-2.7,8.7-6.6,16.1-11.6,22.2
            c-5,6.1-11,10.8-18.1,14c-7.1,3.4-15.2,5-24.1,5c-9,0-17-1.6-24.2-5c-7.1-3.3-13.2-7.9-18.2-14c-5-6.1-8.8-13.5-11.6-22.2
            C1110.3,522.1,1108.9,512.4,1108.9,501.8z M1482.2,501.8c0-15.3-2.4-28.5-7.1-39.7c-4.7-11.2-11.4-20.6-20-27.9
            c-8.6-7.3-18.9-12.8-30.9-16.5c-12-3.6-25.2-5.5-39.6-5.5c-7.1,0-14.9,0.3-23.4,0.9c-8.5,0.6-16.2,1.8-23.2,3.5v170.3
            c7,1.7,14.7,2.9,23.2,3.5c8.6,0.6,16.4,0.9,23.4,0.9c14.4,0,27.5-1.8,39.6-5.5c12-3.6,22.3-9.2,30.9-16.5
            c8.6-7.4,15.3-16.6,20-27.9C1479.8,530.2,1482.2,516.9,1482.2,501.8z M1386.6,569.7c-7,0-12.4-0.1-16.1-0.3
            c-3.8-0.2-6.4-0.3-7.9-0.5V434.6c1.5-0.2,4.2-0.3,7.9-0.5s9.2-0.2,16.1-0.2c23.3,0,40.7,5.9,52.2,17.8
            c11.5,11.9,17.3,28.6,17.3,50.1c0,21.4-5.8,38.1-17.3,50C1427.3,563.7,1409.9,569.7,1386.6,569.7z M1634.7,593.4
            c11.5,0,21.4-1.8,29.8-5.3c8.3-3.5,15.3-8.4,20.8-14.5c5.5-6.2,9.6-13.5,12.1-22c2.6-8.4,3.9-17.5,3.9-27.3V414h-24.6v107.5
            c0,8.7-1,16.3-3.1,22.6c-2,6.3-4.9,11.6-8.6,15.6c-3.7,4.1-8.2,7.1-13.3,9.1c-5.1,1.9-10.8,2.9-17.1,2.9c-12.5,0-22.6-4-30.4-12
            c-7.7-7.9-11.6-20.6-11.6-38.2V414h-24.6v110.3c0,9.8,1.3,18.9,3.9,27.3c2.6,8.5,6.6,15.8,12,22c5.4,6.1,12.3,11,20.8,14.5
            C1613.3,591.7,1623.2,593.4,1634.7,593.4z M1869.9,593.4c7.1,0,13.6-0.4,19.7-1.2c6.1-0.9,11.4-1.9,16-3.1
            c4.6-1.2,8.3-2.4,11.4-3.7c3.1-1.3,5.1-2.3,6.3-3.2L1917,562c-3.7,1.8-9.3,3.9-16.7,6.3c-7.5,2.3-16.9,3.5-28.2,3.5
            c-9.8,0-18.4-1.7-25.7-5.1c-7.4-3.4-13.5-8.2-18.4-14.3c-4.9-6.2-8.6-13.6-11.1-22.2c-2.4-8.6-3.6-18.1-3.6-28.6
            c0-10.8,1.4-20.6,4.2-29.3s6.8-16.1,12-22.2c5.2-6.1,11.6-10.8,19-14c7.4-3.2,15.7-4.8,25-4.8c4.4,0,8.7,0.4,13.1,1.1
            c4.3,0.8,8.3,1.8,11.9,3c3.6,1.1,6.9,2.3,9.8,3.5c2.8,1.2,5.1,2.2,6.6,3.3l7.1-20.3c-1-0.6-2.9-1.7-5.5-3.1
            c-2.7-1.3-6.3-2.6-10.5-4c-4.3-1.4-9.4-2.6-15.3-3.5c-5.8-1-12.4-1.5-19.7-1.5c-11.5,0-22.2,2-32.4,6.1c-10.1,4-18.9,10-26.6,17.7
            c-7.6,7.7-13.6,17.3-18.1,28.7c-4.5,11.4-6.7,24.4-6.7,39.2c0,14.7,1.9,27.7,5.9,39.1c3.9,11.4,9.6,21,16.9,28.8
            c7.2,7.7,16,13.6,26.1,17.7C1846.3,591.4,1857.5,593.4,1869.9,593.4z M2123.8,414h-135.1v21.3h55.2v154.4h24.6V435.3h55.2V414z
             M2385.1,593.4c7.1,0,13.6-0.4,19.7-1.2c6.1-0.9,11.4-1.9,16-3.1c4.5-1.2,8.3-2.4,11.4-3.7c3.1-1.3,5.1-2.3,6.3-3.2l-6.3-20.2
            c-3.8,1.8-9.3,3.9-16.8,6.3c-7.4,2.3-16.8,3.5-28.1,3.5c-9.8,0-18.4-1.7-25.7-5.1c-7.4-3.4-13.5-8.2-18.4-14.3
            c-4.9-6.2-8.6-13.6-11.1-22.2c-2.4-8.6-3.6-18.1-3.6-28.6c0-10.8,1.4-20.6,4.2-29.3c2.7-8.7,6.7-16.1,12-22.2
            c5.2-6.1,11.6-10.8,18.9-14c7.5-3.2,15.8-4.8,25.1-4.8c4.4,0,8.7,0.4,13,1.1c4.3,0.8,8.3,1.8,12,3c3.6,1.1,6.9,2.3,9.7,3.5
            c2.9,1.2,5.1,2.2,6.6,3.3l7.1-20.3c-1-0.6-2.9-1.7-5.6-3.1c-2.6-1.3-6.2-2.6-10.5-4c-4.3-1.4-9.3-2.6-15.2-3.5
            c-5.9-1-12.4-1.5-19.7-1.5c-11.5,0-22.2,2-32.4,6.1c-10.1,4-18.9,10-26.6,17.7c-7.6,7.7-13.6,17.3-18.1,28.7
            c-4.5,11.4-6.7,24.4-6.7,39.2c0,14.7,2,27.7,6,39.1c3.9,11.4,9.6,21,16.9,28.8c7.2,7.7,15.9,13.6,26.1,17.7
            C2361.5,591.4,2372.7,593.4,2385.1,593.4z M2505.2,501.8c0,15,2.2,28.3,6.7,39.7c4.4,11.5,10.5,21.1,18.2,28.8
            c7.7,7.6,16.6,13.4,26.8,17.3c10.3,3.9,21.1,5.8,32.6,5.8c11.3,0,22-1.9,32-5.8c10.1-3.9,18.9-9.7,26.5-17.3
            c7.6-7.7,13.6-17.3,18.1-28.8s6.7-24.7,6.7-39.7c0-15.1-2.2-28.3-6.7-39.8c-4.5-11.5-10.5-21.1-18.1-28.7
            c-7.5-7.7-16.4-13.5-26.5-17.4c-10-3.9-20.7-5.8-32-5.8c-11.5,0-22.3,1.9-32.6,5.8c-10.2,3.9-19.1,9.7-26.8,17.4
            c-7.7,7.6-13.8,17.3-18.2,28.7C2507.4,473.4,2505.2,486.7,2505.2,501.8z M2531,501.8c0-10.7,1.4-20.3,4-29.1
            c2.7-8.7,6.6-16.1,11.6-22.2s11.1-10.8,18.2-14c7.2-3.3,15.3-5,24.2-5c8.9,0,16.9,1.7,24.1,5c7.1,3.3,13.1,7.9,18.1,14
            c5.1,6.1,8.8,13.5,11.6,22.2c2.7,8.7,4.1,18.4,4.1,29.1c0,10.6-1.4,20.3-4.1,29s-6.5,16.1-11.6,22.2c-5,6.1-11,10.8-18.1,14
            c-7.1,3.4-15.2,5-24.1,5c-9,0-17-1.6-24.2-5c-7.1-3.3-13.2-7.9-18.2-14c-5-6.1-8.8-13.5-11.6-22.2
            C2532.4,522.1,2531,512.4,2531,501.8z M2838.9,565.3h19.8c1.7-4.1,3.9-9.2,6.7-15.5c2.8-6.2,5.8-13,9-20.2
            c3.2-7.3,6.7-14.8,10.3-22.5c3.7-7.6,7.1-14.9,10.3-21.8s6.2-13,9-18.4c2.8-5.4,5.1-9.6,6.7-12.4c1.8,20,3.4,41.6,4.6,64.8
            c1.1,23.2,2.2,46.6,3.1,70.3h24c-2.8-60.4-7.1-119-12.9-175.6h-21.5c-4.6,7.5-9.5,16.2-14.7,26.4c-5.2,10.1-10.4,20.7-15.7,31.8
            c-5.2,11.1-10.3,22.2-15.2,33.2c-4.9,11.1-9.4,21.2-13.4,30.3c-4.1-9.2-8.6-19.3-13.5-30.3c-4.9-11-10-22.1-15.2-33.2
            c-5.2-11.1-10.5-21.7-15.7-31.8c-5.2-10.2-10.1-18.9-14.7-26.4h-21.5c-1.5,12.7-3,26.1-4.2,40.3c-1.3,14.2-2.5,28.8-3.6,43.7
            c-1,14.9-2,30.1-2.9,45.6c-0.8,15.5-1.6,30.8-2.2,46h24.1c0.8-23.7,1.8-47.1,3-70.3c1.2-23.2,2.7-44.8,4.6-64.8
            c1.7,2.9,3.9,7.1,6.7,12.4c2.8,5.4,5.8,11.6,9,18.4s6.7,14.1,10.3,21.8c3.6,7.7,7.1,15.2,10.3,22.5c3.2,7.2,6.2,14,9,20.2
            C2835,556.1,2837.2,561.2,2838.9,565.3z M3078.2,412.3c-7.1,0-14.9,0.3-23.4,0.9c-8.6,0.6-16.3,1.8-23.2,3.5v173.1h24.6v-65.1h19.5
            c12.4,0,23.4-1,33.2-3.1c9.8-2,18.1-5.3,24.9-9.8c6.9-4.5,12.1-10.3,15.7-17.5c3.6-7.1,5.5-15.8,5.5-25.9c0-18.6-6.7-32.6-19.9-42
            C3121.8,417,3102.8,412.3,3078.2,412.3z M3080.2,433.8c6.6,0,12.8,0.5,18.7,1.4c5.9,1,11.2,2.9,15.7,5.5c4.4,2.6,8,6.2,10.6,10.5
            c2.6,4.4,3.9,10,3.9,16.8c0,7.1-1.3,12.9-3.8,17.5c-2.6,4.5-6.2,8.1-10.8,10.8c-4.7,2.6-10.4,4.4-17.2,5.5
            c-6.7,1.1-14.3,1.7-22.8,1.7h-18.5v-69C3061.6,434.1,3069.7,433.8,3080.2,433.8z M3342,568.4h-81.1V414h-24.6v175.6H3342V568.4z
             M3431.1,589.7h24.6v-71c11.5-17.9,22.4-35.6,32.7-53.1c10.4-17.5,20.1-34.7,29.1-51.6h-27.3c-6.7,13.9-13.9,27.9-21.8,42.2
            c-7.9,14.3-16.1,28-24.3,41.2c-8.4-13.2-16.6-26.9-24.6-41.2c-7.9-14.3-15.2-28.3-21.6-42.2h-28.8c9.1,16.9,18.8,34.1,29.1,51.7
            c10.3,17.6,21.3,35.4,32.9,53.5V589.7z" />
    </g>
</svg>
