<svg width="364" height="28" xmlns="http://www.w3.org/2000/svg">
    <g transform="translate(181, 25) scale(1)">
        <path d="M-169.79 -22.1C-170.67 -22.1 -171.65 -22.06 -172.71 -21.99C-173.77 -21.91 -174.74 -21.77 -175.6 -21.56L-175.6 0L-172.54 0L-172.54 -8.11L-170.11 -8.11C-168.57 -8.11 -167.19 -8.24 -165.97 -8.49C-164.75 -8.74 -163.71 -9.15 -162.86 -9.71C-162.01 -10.27 -161.36 -10.99 -160.9 -11.89C-160.45 -12.78 -160.23 -13.86 -160.23 -15.12C-160.23 -17.44 -161.05 -19.18 -162.7 -20.35C-164.36 -21.51 -166.72 -22.1 -169.79 -22.1ZM-169.54 -19.41C-168.72 -19.41 -167.94 -19.35 -167.2 -19.23C-166.47 -19.1 -165.82 -18.87 -165.26 -18.55C-164.7 -18.22 -164.26 -17.78 -163.93 -17.24C-163.61 -16.69 -163.45 -15.99 -163.45 -15.15C-163.45 -14.27 -163.6 -13.54 -163.92 -12.97C-164.23 -12.41 -164.68 -11.96 -165.26 -11.63C-165.84 -11.31 -166.55 -11.08 -167.39 -10.94C-168.23 -10.8 -169.18 -10.73 -170.23 -10.73L-172.54 -10.73L-172.54 -19.32C-171.84 -19.38 -170.84 -19.41 -169.54 -19.41Z M-139.39 -9.15C-137.9 -9.66 -136.77 -10.43 -136 -11.46C-135.23 -12.49 -134.84 -13.73 -134.84 -15.18C-134.84 -17.48 -135.65 -19.2 -137.26 -20.36C-138.87 -21.52 -141.21 -22.1 -144.28 -22.1C-145.17 -22.1 -146.14 -22.06 -147.2 -21.99C-148.27 -21.91 -149.23 -21.77 -150.09 -21.56L-150.09 0L-147.03 0L-147.03 -8.56L-144.28 -8.56L-143.42 -8.56C-143.13 -8.56 -142.85 -8.57 -142.58 -8.59C-142.18 -8.1 -141.73 -7.53 -141.24 -6.88C-140.74 -6.23 -140.24 -5.53 -139.74 -4.78C-139.23 -4.04 -138.73 -3.25 -138.24 -2.43C-137.74 -1.61 -137.29 -0.8 -136.87 0L-133.52 0C-133.9 -0.84 -134.36 -1.72 -134.89 -2.62C-135.43 -3.53 -135.97 -4.39 -136.52 -5.22C-137.06 -6.06 -137.6 -6.81 -138.11 -7.5C-138.63 -8.18 -139.05 -8.73 -139.39 -9.15ZM-144.03 -19.41C-143.21 -19.41 -142.44 -19.35 -141.71 -19.23C-140.98 -19.1 -140.35 -18.88 -139.82 -18.56C-139.28 -18.25 -138.85 -17.82 -138.54 -17.27C-138.22 -16.72 -138.06 -16.04 -138.06 -15.22C-138.06 -14.33 -138.22 -13.62 -138.54 -13.09C-138.85 -12.55 -139.3 -12.13 -139.88 -11.84C-140.46 -11.54 -141.17 -11.34 -142.01 -11.24C-142.85 -11.13 -143.8 -11.08 -144.85 -11.08L-147.03 -11.08L-147.03 -19.32C-146.34 -19.38 -145.34 -19.41 -144.03 -19.41Z M-125.15 -10.95C-125.15 -9.08 -124.87 -7.43 -124.32 -6C-123.76 -4.57 -123 -3.37 -122.04 -2.41C-121.09 -1.46 -119.97 -0.74 -118.7 -0.25C-117.42 0.23 -116.07 0.47 -114.64 0.47C-113.23 0.47 -111.9 0.23 -110.65 -0.25C-109.4 -0.74 -108.3 -1.46 -107.35 -2.41C-106.4 -3.37 -105.65 -4.57 -105.09 -6C-104.53 -7.43 -104.25 -9.08 -104.25 -10.95C-104.25 -12.83 -104.53 -14.48 -105.09 -15.91C-105.65 -17.34 -106.4 -18.54 -107.35 -19.49C-108.3 -20.45 -109.4 -21.17 -110.65 -21.66C-111.9 -22.14 -113.23 -22.38 -114.64 -22.38C-116.07 -22.38 -117.42 -22.14 -118.7 -21.66C-119.97 -21.17 -121.09 -20.45 -122.04 -19.49C-123 -18.54 -123.76 -17.34 -124.32 -15.91C-124.87 -14.48 -125.15 -12.83 -125.15 -10.95ZM-121.93 -10.95C-121.93 -12.28 -121.76 -13.48 -121.43 -14.57C-121.09 -15.65 -120.61 -16.57 -119.99 -17.33C-119.37 -18.09 -118.61 -18.67 -117.72 -19.08C-116.82 -19.49 -115.82 -19.7 -114.7 -19.7C-113.59 -19.7 -112.59 -19.49 -111.7 -19.08C-110.82 -18.67 -110.07 -18.09 -109.45 -17.33C-108.83 -16.57 -108.35 -15.65 -108.01 -14.57C-107.67 -13.48 -107.51 -12.28 -107.51 -10.95C-107.51 -9.63 -107.67 -8.42 -108.01 -7.34C-108.35 -6.26 -108.83 -5.34 -109.45 -4.58C-110.07 -3.82 -110.82 -3.24 -111.7 -2.83C-112.59 -2.41 -113.59 -2.21 -114.7 -2.21C-115.82 -2.21 -116.82 -2.41 -117.72 -2.83C-118.61 -3.24 -119.37 -3.82 -119.99 -4.58C-120.61 -5.34 -121.09 -6.26 -121.43 -7.34C-121.76 -8.42 -121.93 -9.63 -121.93 -10.95Z M-75.43 -10.95C-75.43 -12.85 -75.73 -14.5 -76.32 -15.89C-76.91 -17.29 -77.74 -18.45 -78.81 -19.37C-79.88 -20.28 -81.17 -20.97 -82.66 -21.42C-84.16 -21.87 -85.8 -22.1 -87.59 -22.1C-88.47 -22.1 -89.44 -22.06 -90.51 -21.99C-91.57 -21.91 -92.53 -21.77 -93.4 -21.56L-93.4 -0.35C-92.53 -0.14 -91.57 0.01 -90.51 0.08C-89.44 0.15 -88.47 0.19 -87.59 0.19C-85.8 0.19 -84.16 -0.04 -82.66 -0.49C-81.17 -0.94 -79.88 -1.63 -78.81 -2.54C-77.74 -3.46 -76.91 -4.61 -76.32 -6.01C-75.73 -7.41 -75.43 -9.06 -75.43 -10.95ZM-87.33 -2.49C-88.2 -2.49 -88.87 -2.5 -89.34 -2.53C-89.81 -2.55 -90.14 -2.57 -90.33 -2.59L-90.33 -19.32C-90.14 -19.34 -89.81 -19.36 -89.34 -19.38C-88.87 -19.4 -88.2 -19.41 -87.33 -19.41C-84.43 -19.41 -82.26 -18.67 -80.83 -17.19C-79.4 -15.71 -78.68 -13.63 -78.68 -10.95C-78.68 -8.28 -79.4 -6.2 -80.83 -4.72C-82.26 -3.24 -84.43 -2.49 -87.33 -2.49Z M-56.43 0.47C-55 0.47 -53.76 0.25 -52.72 -0.19C-51.68 -0.63 -50.81 -1.24 -50.13 -2C-49.45 -2.77 -48.94 -3.68 -48.62 -4.74C-48.29 -5.79 -48.13 -6.92 -48.13 -8.14L-48.13 -21.88L-51.19 -21.88L-51.19 -8.49C-51.19 -7.4 -51.31 -6.46 -51.57 -5.67C-51.82 -4.88 -52.18 -4.23 -52.64 -3.73C-53.1 -3.22 -53.66 -2.85 -54.3 -2.6C-54.94 -2.36 -55.65 -2.24 -56.43 -2.24C-57.99 -2.24 -59.25 -2.74 -60.22 -3.73C-61.18 -4.71 -61.67 -6.3 -61.67 -8.49L-61.67 -21.88L-64.73 -21.88L-64.73 -8.14C-64.73 -6.92 -64.57 -5.79 -64.24 -4.74C-63.92 -3.68 -63.42 -2.77 -62.74 -2C-62.07 -1.24 -61.21 -0.63 -60.15 -0.19C-59.1 0.25 -57.86 0.47 -56.43 0.47Z M-27.13 0.47C-26.25 0.47 -25.43 0.42 -24.67 0.32C-23.91 0.21 -23.25 0.08 -22.68 -0.06C-22.11 -0.21 -21.64 -0.36 -21.26 -0.52C-20.88 -0.68 -20.62 -0.81 -20.47 -0.92L-21.26 -3.44C-21.72 -3.21 -22.42 -2.95 -23.34 -2.65C-24.27 -2.36 -25.44 -2.21 -26.85 -2.21C-28.07 -2.21 -29.14 -2.42 -30.05 -2.84C-30.97 -3.26 -31.73 -3.86 -32.34 -4.62C-32.95 -5.39 -33.41 -6.31 -33.72 -7.39C-34.02 -8.46 -34.17 -9.65 -34.17 -10.95C-34.17 -12.3 -34 -13.52 -33.65 -14.6C-33.3 -15.68 -32.8 -16.61 -32.15 -17.36C-31.5 -18.12 -30.71 -18.7 -29.78 -19.1C-28.86 -19.5 -27.82 -19.7 -26.66 -19.7C-26.11 -19.7 -25.57 -19.65 -25.03 -19.56C-24.5 -19.46 -24 -19.34 -23.55 -19.19C-23.1 -19.05 -22.69 -18.9 -22.33 -18.75C-21.98 -18.6 -21.7 -18.47 -21.51 -18.34L-20.63 -20.87C-20.76 -20.95 -20.99 -21.08 -21.32 -21.25C-21.66 -21.41 -22.1 -21.58 -22.63 -21.75C-23.17 -21.92 -23.8 -22.07 -24.53 -22.19C-25.25 -22.32 -26.07 -22.38 -26.98 -22.38C-28.41 -22.38 -29.75 -22.13 -31.02 -21.62C-32.28 -21.12 -33.38 -20.38 -34.33 -19.41C-35.28 -18.45 -36.03 -17.25 -36.59 -15.83C-37.15 -14.41 -37.42 -12.79 -37.42 -10.95C-37.42 -9.12 -37.18 -7.5 -36.68 -6.08C-36.19 -4.66 -35.49 -3.46 -34.58 -2.49C-33.68 -1.53 -32.59 -0.79 -31.33 -0.28C-30.07 0.22 -28.67 0.47 -27.13 0.47Z M4.5 -21.88L-12.33 -21.88L-12.33 -19.23L-5.45 -19.23L-5.45 0L-2.38 0L-2.38 -19.23L4.5 -19.23Z M37.05 0.47C37.93 0.47 38.75 0.42 39.51 0.32C40.27 0.21 40.93 0.08 41.5 -0.06C42.06 -0.21 42.54 -0.36 42.92 -0.52C43.3 -0.68 43.56 -0.81 43.71 -0.92L42.92 -3.44C42.45 -3.21 41.76 -2.95 40.83 -2.65C39.91 -2.36 38.74 -2.21 37.33 -2.21C36.11 -2.21 35.04 -2.42 34.13 -2.84C33.21 -3.26 32.45 -3.86 31.84 -4.62C31.23 -5.39 30.77 -6.31 30.46 -7.39C30.16 -8.46 30.01 -9.65 30.01 -10.95C30.01 -12.3 30.18 -13.52 30.53 -14.6C30.87 -15.68 31.37 -16.61 32.03 -17.36C32.68 -18.12 33.47 -18.7 34.39 -19.1C35.32 -19.5 36.36 -19.7 37.52 -19.7C38.07 -19.7 38.61 -19.65 39.14 -19.56C39.68 -19.46 40.18 -19.34 40.63 -19.19C41.08 -19.05 41.49 -18.9 41.84 -18.75C42.2 -18.6 42.48 -18.47 42.66 -18.34L43.55 -20.87C43.42 -20.95 43.19 -21.08 42.85 -21.25C42.52 -21.41 42.08 -21.58 41.54 -21.75C41.01 -21.92 40.38 -22.07 39.65 -22.19C38.92 -22.32 38.11 -22.38 37.2 -22.38C35.77 -22.38 34.43 -22.13 33.16 -21.62C31.9 -21.12 30.8 -20.38 29.85 -19.41C28.9 -18.45 28.15 -17.25 27.59 -15.83C27.03 -14.41 26.75 -12.79 26.75 -10.95C26.75 -9.12 27 -7.5 27.5 -6.08C27.99 -4.66 28.69 -3.46 29.6 -2.49C30.5 -1.53 31.58 -0.79 32.85 -0.28C34.11 0.22 35.51 0.47 37.05 0.47Z M52.01 -10.95C52.01 -9.08 52.29 -7.43 52.85 -6C53.4 -4.57 54.16 -3.37 55.12 -2.41C56.08 -1.46 57.19 -0.74 58.46 -0.25C59.74 0.23 61.09 0.47 62.52 0.47C63.93 0.47 65.26 0.23 66.51 -0.25C67.77 -0.74 68.87 -1.46 69.81 -2.41C70.76 -3.37 71.51 -4.57 72.07 -6C72.63 -7.43 72.91 -9.08 72.91 -10.95C72.91 -12.83 72.63 -14.48 72.07 -15.91C71.51 -17.34 70.76 -18.54 69.81 -19.49C68.87 -20.45 67.77 -21.17 66.51 -21.66C65.26 -22.14 63.93 -22.38 62.52 -22.38C61.09 -22.38 59.74 -22.14 58.46 -21.66C57.19 -21.17 56.08 -20.45 55.12 -19.49C54.16 -18.54 53.4 -17.34 52.85 -15.91C52.29 -14.48 52.01 -12.83 52.01 -10.95ZM55.23 -10.95C55.23 -12.28 55.4 -13.48 55.73 -14.57C56.07 -15.65 56.55 -16.57 57.17 -17.33C57.79 -18.09 58.55 -18.67 59.44 -19.08C60.34 -19.49 61.34 -19.7 62.46 -19.7C63.57 -19.7 64.57 -19.49 65.46 -19.08C66.34 -18.67 67.09 -18.09 67.71 -17.33C68.34 -16.57 68.81 -15.65 69.15 -14.57C69.49 -13.48 69.66 -12.28 69.66 -10.95C69.66 -9.63 69.49 -8.42 69.15 -7.34C68.81 -6.26 68.34 -5.34 67.71 -4.58C67.09 -3.82 66.34 -3.24 65.46 -2.83C64.57 -2.41 63.57 -2.21 62.46 -2.21C61.34 -2.21 60.34 -2.41 59.44 -2.83C58.55 -3.24 57.79 -3.82 57.17 -4.58C56.55 -5.34 56.07 -6.26 55.73 -7.34C55.4 -8.42 55.23 -9.63 55.23 -10.95Z M93.58 -3.03L96.05 -3.03C96.26 -3.54 96.54 -4.18 96.88 -4.96C97.23 -5.73 97.6 -6.58 98 -7.48C98.4 -8.39 98.83 -9.32 99.28 -10.28C99.74 -11.23 100.16 -12.14 100.56 -12.99C100.96 -13.84 101.33 -14.61 101.68 -15.28C102.03 -15.95 102.31 -16.47 102.52 -16.83C102.75 -14.34 102.94 -11.65 103.09 -8.76C103.23 -5.87 103.36 -2.95 103.47 0L106.46 0C106.11 -7.53 105.57 -14.83 104.85 -21.88L102.17 -21.88C101.6 -20.95 100.99 -19.86 100.34 -18.59C99.69 -17.33 99.04 -16.01 98.38 -14.63C97.73 -13.25 97.1 -11.87 96.49 -10.5C95.88 -9.12 95.32 -7.86 94.82 -6.72C94.31 -7.86 93.75 -9.12 93.14 -10.5C92.53 -11.87 91.9 -13.25 91.25 -14.63C90.6 -16.01 89.94 -17.33 89.29 -18.59C88.64 -19.86 88.03 -20.95 87.46 -21.88L84.78 -21.88C84.59 -20.3 84.41 -18.63 84.26 -16.86C84.1 -15.09 83.95 -13.27 83.81 -11.41C83.68 -9.55 83.56 -7.66 83.45 -5.73C83.35 -3.8 83.25 -1.89 83.17 0L86.17 0C86.27 -2.95 86.4 -5.87 86.54 -8.76C86.69 -11.65 86.88 -14.34 87.11 -16.83C87.32 -16.47 87.6 -15.95 87.95 -15.28C88.3 -14.61 88.67 -13.84 89.07 -12.99C89.47 -12.14 89.9 -11.23 90.35 -10.28C90.8 -9.32 91.23 -8.39 91.63 -7.48C92.03 -6.58 92.4 -5.73 92.75 -4.96C93.1 -4.18 93.37 -3.54 93.58 -3.03Z M123.39 -22.1C122.5 -22.1 121.53 -22.06 120.47 -21.99C119.4 -21.91 118.44 -21.77 117.58 -21.56L117.58 0L120.64 0L120.64 -8.11L123.07 -8.11C124.61 -8.11 125.98 -8.24 127.21 -8.49C128.43 -8.74 129.46 -9.15 130.31 -9.71C131.17 -10.27 131.82 -10.99 132.27 -11.89C132.72 -12.78 132.95 -13.86 132.95 -15.12C132.95 -17.44 132.12 -19.18 130.47 -20.35C128.82 -21.51 126.46 -22.1 123.39 -22.1ZM123.64 -19.41C124.46 -19.41 125.24 -19.35 125.97 -19.23C126.71 -19.1 127.36 -18.87 127.92 -18.55C128.47 -18.22 128.92 -17.78 129.24 -17.24C129.57 -16.69 129.73 -15.99 129.73 -15.15C129.73 -14.27 129.57 -13.54 129.26 -12.97C128.94 -12.41 128.49 -11.96 127.92 -11.63C127.34 -11.31 126.63 -11.08 125.78 -10.94C124.94 -10.8 124 -10.73 122.94 -10.73L120.64 -10.73L120.64 -19.32C121.33 -19.38 122.33 -19.41 123.64 -19.41Z M156.25 -2.65L146.15 -2.65L146.15 -21.88L143.08 -21.88L143.08 0L156.25 0Z M167.36 0L170.42 0L170.42 -8.84C171.85 -11.07 173.21 -13.27 174.49 -15.45C175.78 -17.63 176.99 -19.77 178.12 -21.88L174.72 -21.88C173.89 -20.15 172.99 -18.4 172 -16.62C171.01 -14.84 170 -13.13 168.97 -11.49C167.92 -13.13 166.9 -14.84 165.91 -16.62C164.92 -18.4 164.02 -20.15 163.22 -21.88L159.63 -21.88C160.76 -19.77 161.97 -17.63 163.26 -15.44C164.54 -13.25 165.91 -11.03 167.36 -8.78Z" fill="white" />
    </g>
</svg>