<svg width="40" height="53" viewBox="0 0 40 53" fill="none" xmlns="http://www.w3.org/2000/svg">
  <path fill-rule="evenodd" clip-rule="evenodd"
        d="M25.2898 16.4706C24.317 16.4706 23.5294 15.6824 23.5294 14.7102V0H2.15628C0.9654 0 0 0.964086 0 2.15746V50.7837C0 51.9753 0.96895 52.9412 2.16476 52.9412H37.8352C39.0308 52.9412 40 51.969 40 50.7778V16.4706H25.2898ZM23.6972 41.1765H28.2353L22.2688 32.8246L27.2277 25.8824H22.6896L19.9998 29.6487L17.31 25.8824H12.7703L17.7307 32.8246L11.7647 41.1765H16.1006H16.3012H21.6258L20.0211 38.7074H18.0658L19.9998 36.0002L23.6972 41.1765ZM40 14.1176H27.0617C26.4104 14.1176 25.8824 13.59 25.8824 12.9383V0L40 14.1176Z"
        fill=""/>
</svg>
