<svg width="40" height="28" viewBox="0 0 40 28" fill="none" xmlns="http://www.w3.org/2000/svg">
  <path
    d="M33.8746 8.052C32.5513 3.39982 28.346 0 23.3619 0C19.6045 0 16.2891 1.9323 14.3177 4.88206C13.313 4.04314 12.0313 3.53923 10.6324 3.53923C7.41714 3.53923 4.80968 6.2004 4.80968 9.48281C4.80968 10.038 4.88538 10.5737 5.02453 11.0849C2.06424 12.4326 0 15.4631 0 18.9852C0 23.7621 3.79151 27.6364 8.46922 27.6364H16.9324V20.0174H12.3314L19.9998 10.8059L27.6658 20.0174H23.0662V27.6364H30.0245C35.5345 27.6364 40 23.0747 40 17.4493C40 13.2152 37.4732 9.58801 33.8746 8.052Z"
    fill=""/>
</svg>
