<svg width="28" height="28" viewBox="0 0 28 28" fill="none" xmlns="http://www.w3.org/2000/svg">
  <circle cx="14" cy="14" r="14" fill="#7c7c7c" fill-opacity="0.05"/>
  <g clip-path="url(#clip0)">
    <path
      d="M11.5002 9.24976C11.5002 9.34827 11.5196 9.44582 11.5572 9.53685C11.5949 9.62787 11.6501 9.71058 11.7197 9.78026L16.1897 14.2498L11.7197 18.7193C11.579 18.86 11.5 19.0508 11.5 19.2498C11.5 19.4487 11.579 19.6396 11.7197 19.7803C11.8604 19.921 12.0513 20 12.2502 20C12.4492 20 12.64 19.921 12.7807 19.7803L17.7807 14.7803C17.8504 14.7106 17.9057 14.6279 17.9434 14.5369C17.9812 14.4459 18.0006 14.3483 18.0006 14.2498C18.0006 14.1512 17.9812 14.0537 17.9434 13.9626C17.9057 13.8716 17.8504 13.7889 17.7807 13.7193L12.7807 8.71926C12.6758 8.6143 12.5422 8.54282 12.3967 8.51385C12.2511 8.48488 12.1003 8.49974 11.9632 8.55653C11.8261 8.61332 11.7089 8.70951 11.6265 8.8329C11.5441 8.9563 11.5002 9.10137 11.5002 9.24976Z"
      fill="#7c7c7c"/>
  </g>
  <defs>
    <clipPath id="clip0">
      <rect width="12" height="12" fill="white" transform="translate(8 20) rotate(-90)"/>
    </clipPath>
  </defs>
</svg>
